<svg width="31" height="31" viewBox="0 0 31 31" fill="none" xmlns="http://www.w3.org/2000/svg">
<path d="M23.8433 5.52301C23.4873 5.52301 23.1393 5.62858 22.8433 5.82636C22.5473 6.02415 22.3166 6.30527 22.1803 6.63418C22.0441 6.96308 22.0085 7.325 22.0779 7.67417C22.1474 8.02334 22.3188 8.34407 22.5705 8.5958C22.8223 8.84753 23.143 9.01897 23.4922 9.08842C23.8413 9.15787 24.2033 9.12223 24.5322 8.98599C24.8611 8.84975 25.1422 8.61904 25.34 8.32303C25.5378 8.02703 25.6433 7.67901 25.6433 7.32301C25.6433 6.84562 25.4537 6.38778 25.1161 6.05022C24.7786 5.71265 24.3207 5.52301 23.8433 5.52301ZM30.7433 9.15301C30.7142 7.90845 30.4811 6.67711 30.0533 5.50801C29.6719 4.50771 29.0783 3.60193 28.3133 2.85301C27.5706 2.08415 26.6627 1.49427 25.6583 1.12801C24.4923 0.687249 23.2596 0.448823 22.0133 0.423008C20.4233 0.333008 19.9133 0.333008 15.8333 0.333008C11.7533 0.333008 11.2433 0.333008 9.65333 0.423008C8.40706 0.448823 7.17434 0.687249 6.00833 1.12801C5.00584 1.49798 4.09873 2.08735 3.35333 2.85301C2.58447 3.59577 1.99459 4.50367 1.62833 5.50801C1.18757 6.67402 0.949143 7.90674 0.923328 9.15301C0.833328 10.743 0.833328 11.253 0.833328 15.333C0.833328 19.413 0.833328 19.923 0.923328 21.513C0.949143 22.7593 1.18757 23.992 1.62833 25.158C1.99459 26.1623 2.58447 27.0702 3.35333 27.813C4.09873 28.5787 5.00584 29.168 6.00833 29.538C7.17434 29.9788 8.40706 30.2172 9.65333 30.243C11.2433 30.333 11.7533 30.333 15.8333 30.333C19.9133 30.333 20.4233 30.333 22.0133 30.243C23.2596 30.2172 24.4923 29.9788 25.6583 29.538C26.6627 29.1717 27.5706 28.5819 28.3133 27.813C29.0817 27.0669 29.6758 26.1603 30.0533 25.158C30.4811 23.9889 30.7142 22.7576 30.7433 21.513C30.7433 19.923 30.8333 19.413 30.8333 15.333C30.8333 11.253 30.8333 10.743 30.7433 9.15301ZM28.0433 21.333C28.0324 22.2852 27.86 23.2286 27.5333 24.123C27.2938 24.7758 26.9091 25.3656 26.4083 25.848C25.9218 26.3438 25.3332 26.7277 24.6833 26.973C23.7889 27.2996 22.8455 27.4721 21.8933 27.483C20.3933 27.558 19.8383 27.573 15.8933 27.573C11.9483 27.573 11.3933 27.573 9.89333 27.483C8.90466 27.5015 7.92022 27.3493 6.98333 27.033C6.362 26.7751 5.80036 26.3922 5.33333 25.908C4.83546 25.4261 4.45559 24.8358 4.22333 24.183C3.85711 23.2757 3.65399 22.3109 3.62333 21.333C3.62333 19.833 3.53333 19.278 3.53333 15.333C3.53333 11.388 3.53333 10.833 3.62333 9.33301C3.63005 8.35959 3.80775 7.39493 4.14833 6.48301C4.4124 5.84987 4.81773 5.2855 5.33333 4.83301C5.78905 4.31726 6.35226 3.90765 6.98333 3.63301C7.89765 3.30307 8.86132 3.13063 9.83333 3.12301C11.3333 3.12301 11.8883 3.03301 15.8333 3.03301C19.7783 3.03301 20.3333 3.03301 21.8333 3.12301C22.7855 3.13393 23.7289 3.30638 24.6233 3.63301C25.305 3.88599 25.9168 4.29728 26.4083 4.83301C26.8999 5.29378 27.284 5.85711 27.5333 6.48301C27.8667 7.39641 28.0393 8.36068 28.0433 9.33301C28.1183 10.833 28.1333 11.388 28.1333 15.333C28.1333 19.278 28.1183 19.833 28.0433 21.333ZM15.8333 7.63801C14.312 7.64097 12.8258 8.0948 11.5623 8.94213C10.2988 9.78947 9.3149 10.9923 8.73478 12.3986C8.15466 13.805 8.00441 15.3517 8.30302 16.8434C8.60162 18.3351 9.33568 19.7048 10.4124 20.7795C11.4892 21.8541 12.8603 22.5855 14.3526 22.8812C15.8449 23.1769 17.3913 23.0237 18.7965 22.4408C20.2017 21.858 21.4026 20.8717 22.2475 19.6066C23.0924 18.3414 23.5433 16.8543 23.5433 15.333C23.5453 14.3207 23.3471 13.3179 22.9602 12.3824C22.5732 11.447 22.0052 10.5972 21.2886 9.88208C20.5721 9.16695 19.7213 8.60053 18.785 8.2154C17.8488 7.83028 16.8457 7.63405 15.8333 7.63801ZM15.8333 20.328C14.8454 20.328 13.8797 20.0351 13.0583 19.4862C12.2368 18.9373 11.5966 18.1572 11.2185 17.2445C10.8405 16.3318 10.7416 15.3275 10.9343 14.3585C11.127 13.3896 11.6028 12.4996 12.3013 11.801C12.9999 11.1024 13.8899 10.6267 14.8589 10.434C15.8278 10.2413 16.8321 10.3402 17.7448 10.7182C18.6575 11.0963 19.4377 11.7365 19.9865 12.5579C20.5354 13.3794 20.8283 14.3451 20.8283 15.333C20.8283 15.989 20.6991 16.6385 20.4481 17.2445C20.1971 17.8505 19.8292 18.4012 19.3653 18.865C18.9015 19.3288 18.3509 19.6968 17.7448 19.9478C17.1388 20.1988 16.4893 20.328 15.8333 20.328Z" fill="#C8C8C8"/>
</svg>
