<svg width="21" height="24" viewBox="0 0 21 24" fill="none" xmlns="http://www.w3.org/2000/svg">
<path d="M20.7 9.04308C20.5348 7.32423 19.9273 5.67744 18.9367 4.26307C17.9461 2.8487 16.6062 1.71496 15.0473 0.972243C13.4884 0.229525 11.7638 -0.0968547 10.0413 0.0248847C8.31881 0.146624 6.65721 0.712334 5.2183 1.66693C3.98211 2.49353 2.94434 3.58367 2.17954 4.85901C1.41474 6.13436 0.941887 7.56327 0.794958 9.04308C0.650826 10.5132 0.835749 11.997 1.33631 13.3867C1.83687 14.7765 2.64052 16.0374 3.68895 17.078L9.92397 23.3248C10.0333 23.4351 10.1635 23.5226 10.3068 23.5823C10.4502 23.642 10.6039 23.6728 10.7592 23.6728C10.9145 23.6728 11.0683 23.642 11.2117 23.5823C11.355 23.5226 11.4851 23.4351 11.5945 23.3248L17.806 17.078C18.8544 16.0374 19.6581 14.7765 20.1586 13.3867C20.6592 11.997 20.8441 10.5132 20.7 9.04308ZM16.159 15.4193L10.7475 20.8308L5.33594 15.4193C4.53843 14.6217 3.92753 13.6574 3.54715 12.5956C3.16678 11.5338 3.02637 10.4009 3.13603 9.27836C3.2464 8.13853 3.60868 7.03747 4.19666 6.05479C4.78464 5.0721 5.58364 4.23235 6.53589 3.59626C7.784 2.76716 9.24907 2.32489 10.7475 2.32489C12.2459 2.32489 13.7109 2.76716 14.959 3.59626C15.9084 4.2299 16.7056 5.06593 17.2935 6.04431C17.8813 7.02269 18.2452 8.11912 18.3589 9.25483C18.4721 10.3812 18.3335 11.5186 17.953 12.5847C17.5725 13.6509 16.9597 14.6191 16.159 15.4193ZM10.7475 4.77268C9.70043 4.77268 8.67692 5.08316 7.80634 5.66486C6.93577 6.24656 6.25724 7.07335 5.85655 8.04068C5.45587 9.00801 5.35103 10.0724 5.5553 11.0993C5.75957 12.1263 6.26376 13.0695 7.00412 13.8099C7.74449 14.5503 8.68777 15.0545 9.71468 15.2587C10.7416 15.463 11.806 15.3582 12.7733 14.9575C13.7407 14.5568 14.5675 13.8783 15.1492 13.0077C15.7309 12.1371 16.0414 11.1136 16.0414 10.0666C16.0382 8.66349 15.4795 7.31878 14.4874 6.32665C13.4953 5.33453 12.1505 4.77578 10.7475 4.77268ZM10.7475 13.0076C10.1658 13.0076 9.59716 12.8351 9.11351 12.512C8.62986 12.1888 8.25289 11.7295 8.03029 11.1921C7.80769 10.6546 7.74945 10.0633 7.86293 9.49279C7.97641 8.92229 8.25652 8.39824 8.66783 7.98693C9.07915 7.57561 9.60319 7.29551 10.1737 7.18203C10.7442 7.06854 11.3356 7.12679 11.873 7.34939C12.4104 7.57199 12.8697 7.94895 13.1929 8.4326C13.516 8.91626 13.6885 9.48488 13.6885 10.0666C13.6885 10.8466 13.3787 11.5946 12.8271 12.1462C12.2755 12.6978 11.5275 13.0076 10.7475 13.0076Z" fill="#F6D400"/>
</svg>
