<svg width="26" height="19" viewBox="0 0 26 19" fill="none" xmlns="http://www.w3.org/2000/svg">
<path d="M23.4037 0.125H3.09122C2.46962 0.125 1.87347 0.37193 1.43394 0.811469C0.994397 1.25101 0.747467 1.84715 0.747467 2.46875L0.747467 16.5312C0.747467 17.1529 0.994397 17.749 1.43394 18.1885C1.87347 18.6281 2.46962 18.875 3.09122 18.875H23.4037C24.0253 18.875 24.6215 18.6281 25.061 18.1885C25.5005 17.749 25.7475 17.1529 25.7475 16.5312V2.46875C25.7475 1.84715 25.5005 1.25101 25.061 0.811469C24.6215 0.37193 24.0253 0.125 23.4037 0.125ZM20.6443 1.6875L13.2475 7.52812L5.85059 1.6875H20.6443ZM3.87247 17.3125V4.25937L13.2475 11.4703L22.6225 4.25781V17.3125H3.87247Z" fill="#F6D400"/>
</svg>
