<svg width="20" height="20" viewBox="0 0 20 20" fill="none" xmlns="http://www.w3.org/2000/svg">
<path d="M17.4077 11.0361C17.1877 11.0361 16.9577 10.9661 16.7377 10.9161C16.2926 10.8166 15.8548 10.6863 15.4277 10.5261C14.9638 10.3574 14.4539 10.3661 13.996 10.5507C13.5382 10.7354 13.1648 11.0828 12.9477 11.5261L12.7277 11.9861C11.7566 11.4353 10.8594 10.7633 10.0577 9.98613C9.28058 9.18451 8.60853 8.28731 8.05773 7.31613L8.51773 7.10613C8.9611 6.88905 9.30851 6.51566 9.49312 6.05782C9.67774 5.59999 9.6865 5.09005 9.51773 4.62613C9.35892 4.19516 9.22864 3.75421 9.12773 3.30613C9.07773 3.08613 9.03773 2.85613 9.00773 2.63613C8.8863 1.93175 8.51736 1.29387 7.96735 0.837372C7.41735 0.380869 6.72243 0.135742 6.00773 0.146133H2.99773C2.57498 0.145579 2.15688 0.234381 1.77085 0.406717C1.38482 0.579052 1.03957 0.831031 0.757731 1.14613C0.47005 1.46979 0.255846 1.85188 0.129834 2.26617C0.00382186 2.68045 -0.0310103 3.11711 0.0277305 3.54613C0.571318 7.70827 2.47294 11.5748 5.43773 14.5461C8.40908 17.5109 12.2756 19.4125 16.4377 19.9561C16.5675 19.966 16.6979 19.966 16.8277 19.9561C17.5651 19.9572 18.2771 19.6867 18.8277 19.1961C19.1428 18.9143 19.3948 18.569 19.5671 18.183C19.7395 17.797 19.8283 17.3789 19.8277 16.9561V13.9561C19.8223 13.2652 19.5786 12.5972 19.1377 12.0652C18.6967 11.5332 18.0857 11.1697 17.4077 11.0361ZM17.8977 17.0361C17.8974 17.1757 17.8679 17.3136 17.811 17.4411C17.7542 17.5685 17.6713 17.6826 17.5677 17.7761C17.4581 17.876 17.3277 17.9502 17.1859 17.9935C17.0441 18.0367 16.8944 18.0479 16.7477 18.0261C13.016 17.5388 9.54798 15.8381 6.87773 13.1861C4.2052 10.5136 2.48976 7.0335 1.99773 3.28613C1.97601 3.13947 1.98717 2.98981 2.03041 2.84798C2.07364 2.70616 2.14788 2.57573 2.24773 2.46613C2.34235 2.36128 2.45811 2.27767 2.58738 2.22079C2.71665 2.16391 2.8565 2.13506 2.99773 2.13613H5.99773C6.22889 2.13048 6.45487 2.20512 6.6372 2.34733C6.81952 2.48955 6.94693 2.69055 6.99773 2.91613C6.99773 3.18613 7.08773 3.46613 7.14773 3.73613C7.26331 4.26 7.41705 4.7747 7.60773 5.27613L6.20773 5.93613C5.96709 6.0466 5.78009 6.24798 5.68773 6.49613C5.58771 6.73959 5.58771 7.01267 5.68773 7.25613C7.12693 10.3389 9.60497 12.8169 12.6877 14.2561C12.9312 14.3561 13.2043 14.3561 13.4477 14.2561C13.6959 14.1638 13.8973 13.9768 14.0077 13.7361L14.6377 12.3361C15.1536 12.5243 15.6815 12.6779 16.2177 12.7961C16.4777 12.8561 16.7577 12.9061 17.0277 12.9461C17.2533 12.9969 17.4543 13.1243 17.5965 13.3067C17.7387 13.489 17.8134 13.715 17.8077 13.9461L17.8977 17.0361ZM11.9977 0.0361328C11.7677 0.0361328 11.5277 0.0361328 11.2977 0.0361328C11.0325 0.0586762 10.7871 0.185653 10.6155 0.38913C10.4439 0.592607 10.3602 0.855916 10.3827 1.12113C10.4053 1.38635 10.5323 1.63175 10.7357 1.80334C10.9392 1.97494 11.2025 2.05868 11.4677 2.03613H11.9977C13.589 2.03613 15.1152 2.66827 16.2404 3.79349C17.3656 4.91871 17.9977 6.44483 17.9977 8.03613C17.9977 8.21613 17.9977 8.38613 17.9977 8.56613C17.9756 8.82994 18.0589 9.09178 18.2295 9.29423C18.4001 9.49669 18.644 9.62324 18.9077 9.64613H18.9877C19.2381 9.64715 19.4797 9.55423 19.6648 9.38575C19.85 9.21726 19.9652 8.98545 19.9877 8.73613C19.9877 8.50613 19.9877 8.26613 19.9877 8.03613C19.9877 5.91613 19.1462 3.88281 17.6481 2.38281C16.15 0.882807 14.1177 0.0387828 11.9977 0.0361328ZM13.9977 8.03613C13.9977 8.30135 14.1031 8.5557 14.2906 8.74324C14.4782 8.93078 14.7325 9.03613 14.9977 9.03613C15.2629 9.03613 15.5173 8.93078 15.7048 8.74324C15.8924 8.5557 15.9977 8.30135 15.9977 8.03613C15.9977 6.97527 15.5763 5.95785 14.8262 5.20771C14.076 4.45756 13.0586 4.03613 11.9977 4.03613C11.7325 4.03613 11.4782 4.14149 11.2906 4.32903C11.1031 4.51656 10.9977 4.77092 10.9977 5.03613C10.9977 5.30135 11.1031 5.5557 11.2906 5.74324C11.4782 5.93078 11.7325 6.03613 11.9977 6.03613C12.5282 6.03613 13.0369 6.24685 13.4119 6.62192C13.787 6.99699 13.9977 7.5057 13.9977 8.03613Z" fill="white"/>
</svg>
