<svg width="26" height="25" viewBox="0 0 26 25" fill="none" xmlns="http://www.w3.org/2000/svg">
<path d="M20.9662 13.5413C20.737 13.5413 20.4974 13.4684 20.2683 13.4163C19.8046 13.3127 19.3486 13.1769 18.9037 13.0101C18.4204 12.8343 17.8893 12.8434 17.4123 13.0357C16.9354 13.228 16.5465 13.5899 16.3203 14.0518L16.0912 14.5309C15.0795 13.9572 14.145 13.2571 13.3099 12.4476C12.5004 11.6126 11.8003 10.678 11.2266 9.66634L11.7058 9.44759C12.1676 9.22146 12.5295 8.83252 12.7218 8.3556C12.9141 7.87869 12.9232 7.3475 12.7474 6.86426C12.582 6.41533 12.4463 5.95601 12.3412 5.48926C12.2891 5.26009 12.2474 5.02051 12.2162 4.79134C12.0897 4.05761 11.7054 3.39316 11.1325 2.91763C10.5595 2.44211 9.83566 2.18677 9.09118 2.19759H5.95577C5.5154 2.19701 5.07988 2.28952 4.67776 2.46903C4.27565 2.64855 3.91601 2.91103 3.62243 3.23926C3.32277 3.5764 3.09964 3.97441 2.96837 4.40596C2.83711 4.83751 2.80083 5.29236 2.86202 5.73926C3.42825 10.0748 5.40911 14.1024 8.49743 17.1976C11.5926 20.2859 15.6202 22.2668 19.9558 22.833C20.091 22.8433 20.2268 22.8433 20.362 22.833C21.1302 22.8341 21.8718 22.5523 22.4453 22.0413C22.7736 21.7478 23.0361 21.3881 23.2156 20.986C23.3951 20.5839 23.4876 20.1484 23.487 19.708V16.583C23.4814 15.8633 23.2275 15.1675 22.7682 14.6133C22.3089 14.0591 21.6724 13.6805 20.9662 13.5413ZM21.4766 19.7913C21.4763 19.9367 21.4455 20.0804 21.3863 20.2131C21.3271 20.3459 21.2408 20.4648 21.1328 20.5622C21.0187 20.6662 20.8828 20.7435 20.7351 20.7886C20.5874 20.8336 20.4315 20.8452 20.2787 20.8226C16.3915 20.3149 12.7789 18.5434 9.99743 15.7809C7.21355 12.997 5.42663 9.37193 4.9141 5.46842C4.89147 5.31565 4.9031 5.15975 4.94814 5.01202C4.99318 4.86429 5.0705 4.72842 5.17452 4.61426C5.27308 4.50504 5.39366 4.41794 5.52832 4.35869C5.66297 4.29944 5.80865 4.26939 5.95577 4.27051H9.08077C9.32156 4.26462 9.55695 4.34237 9.74687 4.49051C9.9368 4.63865 10.0695 4.84803 10.1224 5.08301C10.1224 5.36426 10.2162 5.65592 10.2787 5.93717C10.3991 6.48287 10.5592 7.01902 10.7578 7.54134L9.29952 8.22884C9.04885 8.34391 8.85406 8.55369 8.75785 8.81217C8.65366 9.06578 8.65366 9.35024 8.75785 9.60384C10.257 12.815 12.8383 15.3963 16.0495 16.8955C16.3031 16.9997 16.5876 16.9997 16.8412 16.8955C17.0997 16.7993 17.3095 16.6045 17.4245 16.3538L18.0808 14.8955C18.6182 15.0915 19.168 15.2515 19.7266 15.3747C19.9974 15.4372 20.2891 15.4893 20.5703 15.5309C20.8053 15.5838 21.0147 15.7166 21.1628 15.9065C21.311 16.0964 21.3887 16.3318 21.3828 16.5726L21.4766 19.7913ZM15.3308 2.08301C15.0912 2.08301 14.8412 2.08301 14.6016 2.08301C14.3253 2.10649 14.0697 2.23876 13.891 2.45071C13.7122 2.66267 13.625 2.93695 13.6485 3.21322C13.672 3.48948 13.8042 3.74511 14.0162 3.92385C14.2281 4.1026 14.5024 4.18982 14.7787 4.16634H15.3308C16.9884 4.16634 18.5781 4.82482 19.7502 5.99692C20.9223 7.16903 21.5808 8.75874 21.5808 10.4163C21.5808 10.6038 21.5808 10.7809 21.5808 10.9684C21.5577 11.2432 21.6445 11.516 21.8222 11.7269C21.9999 11.9378 22.2539 12.0696 22.5287 12.0934H22.612C22.8728 12.0945 23.1245 11.9977 23.3173 11.8222C23.5102 11.6467 23.6302 11.4052 23.6537 11.1455C23.6537 10.9059 23.6537 10.6559 23.6537 10.4163C23.6537 8.20801 22.7771 6.08997 21.2166 4.52746C19.656 2.96496 17.5391 2.08577 15.3308 2.08301ZM17.4141 10.4163C17.4141 10.6926 17.5238 10.9576 17.7192 11.1529C17.9145 11.3483 18.1795 11.458 18.4558 11.458C18.732 11.458 18.997 11.3483 19.1923 11.1529C19.3877 10.9576 19.4974 10.6926 19.4974 10.4163C19.4974 9.31127 19.0584 8.25146 18.277 7.47006C17.4956 6.68866 16.4358 6.24967 15.3308 6.24967C15.0545 6.24967 14.7895 6.35942 14.5942 6.55477C14.3988 6.75012 14.2891 7.01507 14.2891 7.29134C14.2891 7.56761 14.3988 7.83256 14.5942 8.02791C14.7895 8.22326 15.0545 8.33301 15.3308 8.33301C15.8833 8.33301 16.4132 8.5525 16.8039 8.9432C17.1946 9.3339 17.4141 9.86381 17.4141 10.4163Z" fill="#F6D400"/>
</svg>
