<svg width="30" height="31" viewBox="0 0 30 31" fill="none" xmlns="http://www.w3.org/2000/svg">
<path d="M19.2383 16.6408C19.9664 16.8738 20.5963 17.1648 21.182 17.5226L21.143 17.4999C21.8094 17.7959 22.3851 18.1423 22.9104 18.5492L22.8915 18.5354C22.9166 18.6122 22.9318 18.6991 22.9318 18.7911C22.9318 18.805 22.9318 18.8176 22.9305 18.8314V18.8302C22.9116 19.3706 22.7919 19.8782 22.5891 20.3405L22.5992 20.3141C22.3082 20.8973 21.8232 21.3471 21.2299 21.5864L21.2123 21.5927C20.6341 21.8988 19.9513 22.0878 19.227 22.1104H19.2194C17.8337 21.9265 16.5816 21.5007 15.4554 20.8734L15.5096 20.9011C14.2221 20.3116 13.1224 19.5368 12.189 18.5971L12.1877 18.5958C11.1497 17.5163 10.1986 16.3347 9.35587 15.0762L9.29666 14.983C8.49549 13.9387 7.9853 12.6324 7.91098 11.2102L7.90972 11.1938V11.0376C7.95003 9.80936 8.49926 8.71594 9.35083 7.95507L9.35461 7.95129C9.61537 7.69179 9.97313 7.52929 10.3687 7.52173H10.3699C10.4972 7.52551 10.6194 7.53559 10.7378 7.55322L10.7214 7.5507C10.831 7.56708 10.9582 7.57716 11.0892 7.57968H11.093C11.1169 7.57716 11.1434 7.5759 11.1711 7.5759C11.3349 7.5759 11.4873 7.62503 11.6145 7.70817L11.612 7.70691C11.7468 7.85555 11.8501 8.03569 11.9118 8.23347L11.9143 8.24354C12.0185 8.50388 12.2335 9.07663 12.5593 9.96179C12.7294 10.3573 12.8957 10.8448 13.0292 11.3462L13.0468 11.4256C12.9511 11.8803 12.7092 12.2671 12.3754 12.5455L12.3716 12.548C11.9223 13.0233 11.6977 13.3256 11.6977 13.455C11.7027 13.5658 11.7405 13.6666 11.7997 13.7497L11.7984 13.7485C12.3086 14.7928 12.9775 15.6796 13.7838 16.4178L13.79 16.4241C14.6404 17.1913 15.6116 17.8501 16.6647 18.3641L16.739 18.3968C16.8612 18.4762 17.0073 18.5266 17.1661 18.5341H17.1686C17.3643 18.5341 17.7161 18.2184 18.2242 17.5868C18.7323 16.9553 19.0699 16.6395 19.237 16.6395L19.2383 16.6408ZM15.274 26.9906H15.3017C17.0111 26.9906 18.6362 26.6315 20.1062 25.984L20.0294 26.0143C22.9973 24.7621 25.3114 22.448 26.5333 19.5595L26.5635 19.4802C27.1808 18.0781 27.5398 16.443 27.5398 14.7248C27.5398 13.0065 27.1808 11.3714 26.5333 9.89125L26.5635 9.96935C25.3114 7.00147 22.9973 4.68738 20.1088 3.46546L20.0294 3.43523C18.6273 2.81797 16.9922 2.45895 15.274 2.45895C13.5557 2.45895 11.9206 2.81797 10.4405 3.46546L10.5186 3.43523C7.5507 4.68738 5.23662 7.00147 4.0147 9.88999L3.98446 9.96935C3.36721 11.3764 3.00819 13.0166 3.00819 14.7399C3.00819 17.4369 3.88747 19.9299 5.37518 21.9454L5.35125 21.9127L3.8081 26.464L8.53454 24.9599C10.4115 26.2322 12.7256 26.9906 15.2173 26.9906H15.2765H15.274ZM15.274 0H15.3156C17.3664 0 19.3164 0.430821 21.0787 1.20806L20.9868 1.17153C24.5455 2.6794 27.3206 5.45455 28.7919 8.91749L28.8285 9.01323C29.5692 10.6975 30 12.6613 30 14.726C30 16.7907 29.5692 18.7546 28.7919 20.532L28.8285 20.4388C27.3206 23.9975 24.5455 26.7726 21.0825 28.244L20.9868 28.2805C19.3151 29.0212 17.3651 29.452 15.3143 29.452C15.3004 29.452 15.2853 29.452 15.2715 29.452H15.274C15.2538 29.452 15.2312 29.452 15.2072 29.452C12.6135 29.452 10.1785 28.7705 8.07222 27.5776L8.14403 27.6154L0 30.233L2.65673 22.3233C1.33277 20.1642 0.547974 17.5503 0.547974 14.7525C0.547974 12.679 0.978795 10.7063 1.75604 8.91875L1.7195 9.01323C3.22738 5.45455 6.00252 2.6794 9.46546 1.20806L9.5612 1.17153C11.2328 0.430821 13.1829 0 15.2337 0H15.2752H15.2727L15.274 0Z" fill="#C8C8C8"/>
</svg>
